# xmcd CD database file
#
# Track frame offsets:
#	150
#	32787
#	61092
#	92910
#	115620
#	142380
#
# Disc length: 2330 seconds
#
# Revision: 0
# Processed by: cddbd v1.4PL0 Copyright (c) Steve Scherf et al.
# Submitted via: CDex 1.50
#
DISCID=50091806
DTITLE=Freddie Redd - Redd's Blues
DYEAR=1961
DGENRE=Jazz
TTITLE0=Now
TTITLE1=Cute Doot
TTITLE2=Old Spice
TTITLE3=Blues for Betsy
TTITLE4=Somewhere
TTITLE5=Love Lost
EXTD=YEAR: 1961
EXTT0=
EXTT1=
EXTT2=
EXTT3=
EXTT4=
EXTT5=
PLAYORDER=
